<svg width="25" height="24" viewBox="0 0 25 24" fill="none" xmlns="http://www.w3.org/2000/svg">
<path d="M6.38672 13H2.38672C2.1215 13 1.86715 13.1054 1.67961 13.2929C1.49208 13.4804 1.38672 13.7348 1.38672 14V22C1.38672 22.2652 1.49208 22.5196 1.67961 22.7071C1.86715 22.8946 2.1215 23 2.38672 23H6.38672C6.65194 23 6.90629 22.8946 7.09383 22.7071C7.28136 22.5196 7.38672 22.2652 7.38672 22V14C7.38672 13.7348 7.28136 13.4804 7.09383 13.2929C6.90629 13.1054 6.65194 13 6.38672 13ZM5.38672 21H3.38672V15H5.38672V21ZM22.3867 9H18.3867C18.1215 9 17.8671 9.10536 17.6796 9.29289C17.4921 9.48043 17.3867 9.73478 17.3867 10V22C17.3867 22.2652 17.4921 22.5196 17.6796 22.7071C17.8671 22.8946 18.1215 23 18.3867 23H22.3867C22.6519 23 22.9063 22.8946 23.0938 22.7071C23.2814 22.5196 23.3867 22.2652 23.3867 22V10C23.3867 9.73478 23.2814 9.48043 23.0938 9.29289C22.9063 9.10536 22.6519 9 22.3867 9ZM21.3867 21H19.3867V11H21.3867V21ZM14.3867 1H10.3867C10.1215 1 9.86715 1.10536 9.67961 1.29289C9.49208 1.48043 9.38672 1.73478 9.38672 2V22C9.38672 22.2652 9.49208 22.5196 9.67961 22.7071C9.86715 22.8946 10.1215 23 10.3867 23H14.3867C14.6519 23 14.9063 22.8946 15.0938 22.7071C15.2814 22.5196 15.3867 22.2652 15.3867 22V2C15.3867 1.73478 15.2814 1.48043 15.0938 1.29289C14.9063 1.10536 14.6519 1 14.3867 1ZM13.3867 21H11.3867V3H13.3867V21Z" fill="black"/>
</svg>
