<svg width="16" height="17" viewBox="0 0 16 17" fill="none" xmlns="http://www.w3.org/2000/svg">
<g clip-path="url(#clip0_101_7581)">
<path fill-rule="evenodd" clip-rule="evenodd" d="M9.99935 1.83331C10.353 1.83331 10.6921 1.97379 10.9422 2.22384C11.1922 2.47389 11.3327 2.81302 11.3327 3.16665V4.49998H9.99935V3.16665H2.66602V10.5H3.99935V11.8333H2.66602C2.31239 11.8333 1.97326 11.6928 1.72321 11.4428C1.47316 11.1927 1.33268 10.8536 1.33268 10.5V3.16665C1.33268 2.81302 1.47316 2.47389 1.72321 2.22384C1.97326 1.97379 2.31239 1.83331 2.66602 1.83331H9.99935ZM13.3327 5.16665C13.6863 5.16665 14.0254 5.30712 14.2755 5.55717C14.5255 5.80722 14.666 6.14636 14.666 6.49998V13.8333C14.666 14.1869 14.5255 14.5261 14.2755 14.7761C14.0254 15.0262 13.6863 15.1666 13.3327 15.1666H5.99935C5.64573 15.1666 5.30659 15.0262 5.05654 14.7761C4.80649 14.5261 4.66602 14.1869 4.66602 13.8333V6.49998C4.66602 6.14636 4.80649 5.80722 5.05654 5.55717C5.30659 5.30712 5.64573 5.16665 5.99935 5.16665H13.3327ZM13.3327 6.49998H5.99935V13.8333H13.3327V6.49998Z" fill="#343739"/>
</g>
<defs>
<clipPath id="clip0_101_7581">
<rect width="16" height="16" fill="white" transform="matrix(-1 0 0 1 16 0.5)"/>
</clipPath>
</defs>
</svg>
