<svg width="8" height="14" viewBox="0 0 8 14" fill="none" xmlns="http://www.w3.org/2000/svg">
<path d="M0.24647 13.7809C0.101838 13.6405 0.0205989 13.4501 0.020599 13.2516C0.020599 13.0531 0.101838 12.8627 0.246471 12.7223L6.13679 7.00955L0.246472 1.29681C0.144807 1.20525 0.0704872 1.08879 0.0313413 0.95971C-0.00780467 0.830626 -0.0103271 0.693692 0.0240395 0.563334C0.0584066 0.432975 0.12839 0.314019 0.226617 0.219001C0.324845 0.123982 0.447678 0.0564159 0.582177 0.0234235C0.716436 -0.00995032 0.857487 -0.00762048 0.990496 0.0301651C1.12351 0.0679516 1.24356 0.139798 1.33803 0.238151L7.77413 6.48022C7.91876 6.62067 8 6.81105 8 7.00955C8 7.20804 7.91876 7.39843 7.77413 7.53887L1.33803 13.7809C1.19322 13.9212 0.99692 14 0.792251 14C0.587583 14 0.391283 13.9212 0.24647 13.7809Z" fill="#94999F"/>
</svg>
