<svg width="18" height="19" viewBox="0 0 18 19" fill="none" xmlns="http://www.w3.org/2000/svg">
<mask id="mask0_101_7576" style="mask-type:luminance" maskUnits="userSpaceOnUse" x="0" y="0" width="18" height="19">
<path d="M16.0448 10.8629V16.6704C16.0448 16.8904 15.9567 17.1014 15.8 17.257C15.6432 17.4126 15.4306 17.5 15.209 17.5H1.83582C1.61415 17.5 1.40155 17.4126 1.24481 17.257C1.08806 17.1014 1 16.8904 1 16.6704V3.39628C1 3.17625 1.08806 2.96523 1.24481 2.80964C1.40155 2.65406 1.61415 2.56665 1.83582 2.56665H7.68657" stroke="white" stroke-width="1.55556" stroke-linecap="round" stroke-linejoin="round"/>
<path d="M5.29883 10.095V13.1148H8.35668L17.0003 4.53147L13.9475 1.5L5.29883 10.095Z" stroke="white" stroke-width="1.55556" stroke-linejoin="round"/>
</mask>
<g mask="url(#mask0_101_7576)">
<path d="M-1.31141 0.27202H18.3594V19.7942H-1.31141V0.27202Z" fill="#343739" stroke="white" stroke-width="0.388889"/>
</g>
</svg>
