<svg width="16" height="17" viewBox="0 0 16 17" fill="none" xmlns="http://www.w3.org/2000/svg">
<path d="M15.6629 14.5465C15.8775 14.7611 15.9981 15.0521 15.9981 15.3556C15.9981 15.6591 15.8775 15.9502 15.6629 16.1648C15.4483 16.3794 15.1572 16.5 14.8537 16.5C14.5502 16.5 14.2591 16.3794 14.0444 16.1648L8 10.1188L1.95365 16.1629C1.73903 16.3775 1.44794 16.4981 1.14442 16.4981C0.840901 16.4981 0.549813 16.3775 0.335193 16.1629C0.120573 15.9483 3.19809e-09 15.6572 0 15.3537C-3.19809e-09 15.0502 0.120573 14.7592 0.335193 14.5446L6.38155 8.50048L0.337097 2.45448C0.122476 2.23987 0.0019041 1.9488 0.00190411 1.6453C0.00190411 1.3418 0.122476 1.05073 0.337097 0.836125C0.551717 0.621517 0.842805 0.500952 1.14632 0.500952C1.44984 0.500952 1.74093 0.621517 1.95555 0.836125L8 6.88212L14.0464 0.835173C14.261 0.620565 14.5521 0.5 14.8556 0.5C15.1591 0.5 15.4502 0.620565 15.6648 0.835173C15.8794 1.04978 16 1.34085 16 1.64435C16 1.94785 15.8794 2.23892 15.6648 2.45353L9.61845 8.50048L15.6629 14.5465Z" fill="#343739"/>
</svg>
