<svg width="16" height="16" viewBox="0 0 16 16" fill="none" xmlns="http://www.w3.org/2000/svg">
<circle cx="8" cy="8" r="7.5" fill="white" stroke="#5FCA7B"/>
<path d="M6.99805 9.55078C7.00342 8.21338 7.36328 7.80518 8.00781 7.40234C8.46973 7.10156 8.82959 6.76855 8.82422 6.27441C8.82959 5.7373 8.41064 5.38818 7.88965 5.38281C7.39014 5.38818 6.92285 5.72119 6.90137 6.34961H5.37598C5.40283 4.84033 6.52539 4.11523 7.90039 4.11523C9.39893 4.11523 10.457 4.89404 10.457 6.2207C10.457 7.10693 10.0005 7.66553 9.29688 8.08984C8.68994 8.44971 8.42139 8.79883 8.41602 9.55078V9.66895H6.99805V9.55078ZM6.83691 11.1943C6.82617 10.7002 7.23438 10.2974 7.73926 10.3027C8.21729 10.2974 8.63086 10.7002 8.63086 11.1943C8.63086 11.6938 8.21729 12.0967 7.73926 12.0967C7.23438 12.0967 6.82617 11.6938 6.83691 11.1943Z" fill="#6FCE3D"/>
</svg>
