<svg width="16" height="17" viewBox="0 0 16 17" fill="none" xmlns="http://www.w3.org/2000/svg">
<g clip-path="url(#clip0_101_7579)">
<path d="M9.52 1.83331C9.79984 1.83339 10.0726 1.9215 10.2995 2.08518C10.5265 2.24887 10.6962 2.47981 10.7847 2.74531L11.1467 3.83331H13.3333C13.5101 3.83331 13.6797 3.90355 13.8047 4.02858C13.9298 4.1536 14 4.32317 14 4.49998C14 4.67679 13.9298 4.84636 13.8047 4.97138C13.6797 5.09641 13.5101 5.16665 13.3333 5.16665L13.3313 5.21398L12.7533 13.3093C12.7173 13.8137 12.4915 14.2857 12.1214 14.6304C11.7513 14.975 11.2644 15.1666 10.7587 15.1666H5.24133C4.73564 15.1666 4.24874 14.975 3.87864 14.6304C3.50855 14.2857 3.28274 13.8137 3.24667 13.3093L2.66867 5.21331C2.66746 5.19779 2.66679 5.18222 2.66667 5.16665C2.48986 5.16665 2.32029 5.09641 2.19526 4.97138C2.07024 4.84636 2 4.67679 2 4.49998C2 4.32317 2.07024 4.1536 2.19526 4.02858C2.32029 3.90355 2.48986 3.83331 2.66667 3.83331H4.85333L5.21533 2.74531C5.3038 2.47971 5.47362 2.24868 5.70073 2.08499C5.92784 1.9213 6.20071 1.83325 6.48067 1.83331H9.52ZM11.998 5.16665H4.002L4.57667 13.214C4.58863 13.3821 4.66385 13.5395 4.78717 13.6544C4.9105 13.7693 5.07277 13.8332 5.24133 13.8333H10.7587C10.9272 13.8332 11.0895 13.7693 11.2128 13.6544C11.3362 13.5395 11.4114 13.3821 11.4233 13.214L11.998 5.16665ZM6.66667 7.16665C6.82996 7.16667 6.98756 7.22662 7.10958 7.33512C7.23161 7.44363 7.30956 7.59315 7.32867 7.75531L7.33333 7.83331V11.1666C7.33315 11.3366 7.26808 11.5 7.15143 11.6236C7.03479 11.7471 6.87536 11.8215 6.70574 11.8314C6.53611 11.8414 6.36908 11.7862 6.23878 11.6771C6.10848 11.5681 6.02474 11.4134 6.00467 11.2446L6 11.1666V7.83331C6 7.6565 6.07024 7.48693 6.19526 7.36191C6.32029 7.23688 6.48986 7.16665 6.66667 7.16665ZM9.33333 7.16665C9.51014 7.16665 9.67971 7.23688 9.80474 7.36191C9.92976 7.48693 10 7.6565 10 7.83331V11.1666C10 11.3435 9.92976 11.513 9.80474 11.6381C9.67971 11.7631 9.51014 11.8333 9.33333 11.8333C9.15652 11.8333 8.98695 11.7631 8.86193 11.6381C8.73691 11.513 8.66667 11.3435 8.66667 11.1666V7.83331C8.66667 7.6565 8.73691 7.48693 8.86193 7.36191C8.98695 7.23688 9.15652 7.16665 9.33333 7.16665ZM9.52 3.16665H6.48L6.258 3.83331H9.742L9.52 3.16665Z" fill="#343739"/>
</g>
<defs>
<clipPath id="clip0_101_7579">
<rect width="16" height="16" fill="white" transform="translate(0 0.5)"/>
</clipPath>
</defs>
</svg>
